# xmcd
#
# Track frame offsets: 
#        150
#        21222
#        39292
#        57264
#        75497
#        91377
#        110705
#        131013
#        149788
#        165940
#        182960
#        201038
#        218922
#        242317
#        266626
#        283954
#        297272
#
# Disc length: 4219 seconds
#
# Revision: 1
# Processed by: cddbd v1.5.1PL2 Copyright (c) Steve Scherf et al.
# Submitted via: ExactAudioCopy v0.95b3
#
DISCID=fd107911
DTITLE=Stone, Joss - Mind, Body and Soul - Special Edition
DYEAR=2005
DGENRE=Blues
TTITLE0=Right To Be Wrong
TTITLE1=Jet Lag
TTITLE2=You Had Me
TTITLE3=Spoiled
TTITLE4=Don't Cha Wanna Ride
TTITLE5=Less Is More
TTITLE6=Security
TTITLE7=Young At Heart
TTITLE8=Snakes and Ladders
TTITLE9=Understand
TTITLE10=Don't Know How
TTITLE11=Torn and Tattered
TTITLE12=Killing Time
TTITLE13=Sleep Like A Child
TTITLE14=The Right Time
TTITLE15=God Only Knows
TTITLE16=Calling It Christmas
EXTD=YEAR: 2005
EXTT0=
EXTT1=
EXTT2=
EXTT3=
EXTT4=
EXTT5=
EXTT6=
EXTT7=
EXTT8=
EXTT9=
EXTT10=
EXTT11=
EXTT12=
EXTT13=
EXTT14=
EXTT15=
EXTT16=
PLAYORDER=
